<svg width="73" height="53" viewBox="0 0 73 53" fill="none" xmlns="http://www.w3.org/2000/svg">
<path d="M72.2653 26.216L66.9486 24.4373L72.0333 22.2526C72.251 22.1586 72.4326 21.9968 72.551 21.7913C72.6694 21.5858 72.7184 21.3475 72.6906 21.112C72.6638 20.8763 72.5604 20.656 72.3962 20.4849C72.2321 20.3137 72.0163 20.2012 71.782 20.1646L67.9153 19.5653V15.9886C67.8873 15.7021 67.7631 15.4334 67.5631 15.2263C67.363 15.0192 67.0988 14.8859 66.8133 14.848C66.5773 14.8246 66.3395 14.8685 66.1274 14.9745C65.9153 15.0806 65.7375 15.2445 65.6146 15.4473L63.6813 17.9993L60.5106 16.1626C60.3064 16.0472 60.0706 15.9999 59.8376 16.0277C59.6046 16.0555 59.3866 16.157 59.2153 16.3173C59.0441 16.4764 58.9289 16.6867 58.8871 16.9167C58.8453 17.1467 58.879 17.3841 58.9833 17.5933L61.0326 21.7886V21.924L56.7213 19.5266C56.5146 19.4142 56.2772 19.3708 56.0441 19.403C55.8109 19.4352 55.5942 19.5411 55.4256 19.7054C55.2571 19.8696 55.1455 20.0835 55.1073 20.3158C55.0691 20.548 55.1062 20.7864 55.2133 20.996L57.7846 25.984C56.7511 26.8501 55.4737 27.3731 54.1296 27.4805C52.7855 27.5879 51.4412 27.2743 50.2833 26.5833L51.366 19.7973C51.4067 19.488 51.3233 19.1752 51.134 18.9273C51.0358 18.8099 50.9151 18.7135 50.7789 18.6438C50.6427 18.574 50.4939 18.5324 50.3413 18.5213L47.2673 18.3666L47.8666 11.6C47.8835 11.4197 47.8573 11.238 47.79 11.07C47.7228 10.9019 47.6165 10.7522 47.48 10.6333C47.3368 10.522 47.1692 10.4463 46.991 10.4127C46.8128 10.3791 46.6292 10.3884 46.4553 10.44L40.3073 12.3733L37.1946 5.64531C37.1174 5.48193 37.0012 5.34005 36.8562 5.23216C36.7113 5.12428 36.542 5.0537 36.3633 5.02664C36.186 5.00177 36.0054 5.02046 35.8369 5.0811C35.6685 5.14173 35.5174 5.24249 35.3966 5.37464L30.4666 10.6526L29.4033 9.84064C29.5605 9.69375 29.7029 9.53188 29.8286 9.35731C30.2574 8.75201 30.5113 8.04036 30.5624 7.30034C30.6136 6.56033 30.46 5.82052 30.1186 5.16198C29.6484 4.1371 28.9737 3.21914 28.1359 2.46446C27.2981 1.70977 26.3149 1.13428 25.2466 0.77331C23.4533 0.214746 21.5602 0.0516697 19.6978 0.29532C17.8354 0.53897 16.0479 1.18355 14.4586 2.18464C10.3383 4.64847 6.92619 8.13727 4.55455 12.3114C2.18292 16.4854 0.932586 21.2025 0.925305 26.0033C0.903369 30.1736 1.83582 34.2936 3.6513 38.048C5.4802 42.1872 6.32717 46.6932 6.12598 51.214C6.12341 51.3578 6.14951 51.5006 6.20277 51.6342C6.25602 51.7678 6.33537 51.8895 6.43616 51.9921C6.53695 52.0947 6.65718 52.1761 6.78981 52.2318C6.92244 52.2874 7.06482 52.316 7.20864 52.316H10.6693C10.9616 52.316 11.2419 52.1999 11.4485 51.9932C11.6552 51.7865 11.7713 51.5062 11.7713 51.214C11.7748 48.7136 12.5218 46.2707 13.9173 44.196C15.3129 46.2707 16.0599 48.7136 16.0633 51.214C16.0607 51.3594 16.0874 51.5039 16.1419 51.6388C16.1963 51.7737 16.2774 51.8962 16.3802 51.999C16.4831 52.1019 16.6056 52.183 16.7405 52.2374C16.8754 52.2919 17.0199 52.3186 17.1653 52.316H19.9686C20.1744 52.3152 20.3757 52.2568 20.55 52.1475C20.7242 52.0381 20.8644 51.8822 20.9546 51.6973C22.8688 47.5552 24.2087 43.1712 24.9373 38.6666C25.5476 38.7034 26.1547 38.7809 26.7546 38.8986C27.3346 47.1153 28.0693 51.214 28.0886 51.388C28.1413 51.6371 28.2772 51.8609 28.474 52.0226C28.6708 52.1842 28.9167 52.274 29.1713 52.2773H32.2453C32.5376 52.2773 32.8179 52.1612 33.0245 51.9545C33.2312 51.7479 33.3473 51.4676 33.3473 51.1753C33.427 48.9453 34.0155 46.763 35.068 44.7953C36.2125 46.7262 36.8137 48.9307 36.808 51.1753C36.808 51.4676 36.9241 51.7479 37.1307 51.9545C37.3374 52.1612 37.6177 52.2773 37.91 52.2773H40.4426C40.6584 52.2816 40.8694 52.2135 41.042 52.084C43.5112 50.408 45.587 48.2157 47.1258 45.6588C48.6647 43.1019 49.6299 40.2412 49.9546 37.2746C52.6974 37.2191 55.3881 36.5159 57.8073 35.2223C60.2264 33.9287 62.3054 32.0815 63.8746 29.8313L72.1106 28.2846C72.3473 28.2424 72.5632 28.1225 72.7242 27.944C72.8852 27.7655 72.9822 27.5384 73 27.2986C73.0092 27.0634 72.9429 26.8313 72.8107 26.6365C72.6785 26.4416 72.4874 26.2943 72.2653 26.216ZM31.2206 50.1313H30.0993C29.8673 48.5846 29.4033 45.066 28.9973 39.5753C30.8141 40.2711 32.4382 41.3914 33.734 42.8426C32.3393 45.043 31.4786 47.539 31.2206 50.1313ZM63.0046 27.8206C62.8566 27.8489 62.7162 27.9084 62.5929 27.9951C62.4696 28.0817 62.3661 28.1936 62.2893 28.3233C60.8478 30.5011 58.8712 32.2723 56.549 33.4672C54.2268 34.6622 51.6366 35.2409 49.0266 35.148C48.8829 35.1375 48.7384 35.1558 48.6018 35.2019C48.4652 35.248 48.3392 35.3209 48.2311 35.4163C48.1231 35.5118 48.0352 35.6279 47.9726 35.7577C47.91 35.8876 47.874 36.0287 47.8666 36.1726C47.6996 38.9286 46.9184 41.6124 45.5804 44.0275C44.2423 46.4427 42.3813 48.5282 40.1333 50.1313H39.07C38.8916 47.0659 37.737 44.138 35.775 41.7759C33.813 39.4139 31.1466 37.7417 28.166 37.004C26.8318 36.6361 25.4508 36.4667 24.0673 36.5013C23.8055 36.5109 23.555 36.6103 23.3578 36.7828C23.1606 36.9553 23.0289 37.1904 22.9846 37.4486C22.3468 41.8353 21.0973 46.1108 19.2726 50.1506H18.2673C18.1136 48.1441 17.5546 46.1895 16.6242 44.4051C15.6938 42.6207 14.4112 41.0434 12.854 39.7686C12.6305 39.5825 12.3425 39.4923 12.0528 39.5177C11.763 39.543 11.4951 39.6819 11.3073 39.904C11.1282 40.1318 11.0443 40.4201 11.0732 40.7085C11.102 40.9968 11.2413 41.2628 11.462 41.4506C11.8293 41.76 12.1966 42.0886 12.5253 42.4173C10.8448 44.6679 9.83905 47.35 9.62531 50.1506H8.2913C8.38342 45.6626 7.4719 41.2107 5.62331 37.12C2.84953 31.3712 2.32718 24.7926 4.15901 18.6782C5.99084 12.5637 10.0443 7.356 15.522 4.07931C16.8448 3.24227 18.331 2.69718 19.8813 2.48047C21.4316 2.26376 23.0103 2.38041 24.512 2.82264C25.2932 3.08335 26.014 3.49835 26.6318 4.04302C27.2495 4.58768 27.7515 5.2509 28.108 5.99331C28.5913 7.17264 28.3206 7.73331 28.108 8.04264C26.7933 9.80198 21.496 9.97598 18.4413 9.68598H18.3253C17.1323 9.6775 15.9746 10.0904 15.0562 10.8519C14.1378 11.6134 13.5176 12.6746 13.305 13.8485C13.0924 15.0225 13.301 16.2338 13.894 17.269C14.487 18.3042 15.4264 19.0969 16.5466 19.5073C16.8185 19.608 17.1191 19.5975 17.3833 19.4781C17.6475 19.3586 17.8539 19.1399 17.958 18.8693C17.9604 18.8242 17.9604 18.7791 17.958 18.734L18.8666 15.0993L22.4626 15.9693C22.7394 16.0336 23.0303 15.9865 23.2726 15.8382C23.5149 15.6899 23.6892 15.4523 23.758 15.1766L24.6666 11.7353C25.5695 11.5968 26.4566 11.3702 27.3153 11.0586L29.8866 12.992C30.1012 13.152 30.3667 13.2286 30.6335 13.2072C30.9003 13.1859 31.1503 13.0681 31.3366 12.876L35.8026 8.08131L38.664 14.1906C38.7708 14.4342 38.9651 14.6289 39.2085 14.7363C39.4519 14.8437 39.7267 14.8559 39.9786 14.7706L45.45 13.0886L44.8893 19.3333C44.8754 19.4786 44.8904 19.6251 44.9335 19.7645C44.9767 19.9039 45.0471 20.0333 45.1406 20.1453C45.3377 20.3707 45.6154 20.5096 45.914 20.532L48.9106 20.6866L47.8666 26.912C47.8218 27.1378 47.8502 27.372 47.9475 27.5805C48.0448 27.7891 48.2061 27.9613 48.408 28.072C50.1707 29.2046 52.2537 29.7338 54.3433 29.58C56.4721 29.3739 58.4424 28.3646 59.8533 26.7573C59.9574 26.5853 60.0124 26.388 60.0124 26.187C60.0124 25.9859 59.9574 25.7887 59.8533 25.6166L58.6933 23.2L60.8586 24.3986C60.9931 24.4561 61.1378 24.4857 61.284 24.4857C61.4302 24.4857 61.5749 24.4561 61.7093 24.3986C61.8472 24.3573 61.9751 24.2878 62.0849 24.1947C62.1947 24.1015 62.284 23.9867 62.3473 23.8573L63.198 22.2526C63.2745 22.0996 63.3144 21.9308 63.3144 21.7596C63.3144 21.5885 63.2745 21.4197 63.198 21.2666L62.4826 19.778L63.372 20.3C63.5977 20.4298 63.8628 20.474 64.1185 20.4243C64.3741 20.3745 64.6033 20.2343 64.764 20.0293L65.8273 18.6953V20.5126C65.8402 20.7683 65.9388 21.0122 66.1071 21.2051C66.2754 21.3979 66.5037 21.5286 66.7553 21.576L67.7026 21.7306L65.634 22.62C65.3831 22.7195 65.1816 22.9141 65.0733 23.1613L64.3966 24.6113C64.3349 24.7514 64.3029 24.9029 64.3029 25.056C64.3029 25.2091 64.3349 25.3605 64.3966 25.5006C64.4564 25.6421 64.5462 25.7689 64.6596 25.8724C64.7731 25.9758 64.9076 26.0535 65.054 26.1L67.5866 26.9506L63.0046 27.8206ZM22.4046 11.948L21.96 13.5333L18.3253 12.6633C18.1766 12.6233 18.0212 12.6144 17.8689 12.6371C17.7166 12.6598 17.5705 12.7137 17.4399 12.7953C17.3093 12.8769 17.197 12.9846 17.1098 13.1116C17.0226 13.2385 16.9625 13.3821 16.9333 13.5333L16.1793 16.7233C15.6808 16.2018 15.3977 15.5113 15.3866 14.79C15.3864 14.0341 15.6813 13.3079 16.2085 12.7662C16.7358 12.2245 17.4537 11.9101 18.2093 11.89C19.6043 12.0144 21.0067 12.0338 22.4046 11.948Z" fill="url(#paint0_linear_2_4009)"/>
<defs>
<linearGradient id="paint0_linear_2_4009" x1="1.60197" y1="18.6566" x2="65.3826" y2="45.5493" gradientUnits="userSpaceOnUse">
<stop stop-color="#FCB317"/>
<stop offset="0.25" stop-color="#F58F57"/>
<stop offset="0.3" stop-color="#F48666"/>
<stop offset="0.44" stop-color="#F06B91"/>
<stop offset="0.52" stop-color="#EE61A2"/>
<stop offset="0.57" stop-color="#E065A5"/>
<stop offset="0.68" stop-color="#BA6FAE"/>
<stop offset="0.83" stop-color="#807EBB"/>
<stop offset="0.87" stop-color="#7C83C0"/>
<stop offset="0.93" stop-color="#6F91CD"/>
<stop offset="0.98" stop-color="#5AA8E3"/>
<stop offset="1" stop-color="#53B0EA"/>
</linearGradient>
</defs>
</svg>
